<svg width="24" height="24" viewBox="0 0 24 24" fill="none" xmlns="http://www.w3.org/2000/svg">
<g clip-path="url(#clip0)">
<path d="M22.717 10.5494C21.7617 7.26731 20.6844 5.57147 20.667 5.54105C20.6056 5.46609 19.0833 3.64434 15.4143 2.29688L14.9295 3.61688C16.6749 4.25794 17.9133 5.04 18.5943 5.54531C16.5611 4.93814 14.1423 4.56628 12 4.56628C9.85772 4.56628 7.43892 4.93814 5.40567 5.54531C6.08667 5.04005 7.32502 4.25794 9.0705 3.61688L8.58567 2.29688C4.91672 3.64434 3.39441 5.46609 3.333 5.54105C3.31561 5.57147 2.23828 7.26731 1.28306 10.5494C0.362438 13.7123 0.0127031 18.1743 0 18.3533C0.0820312 18.4815 1.96875 21.7028 7.11061 21.7028L8.41392 19.8155C6.95377 19.4278 5.56144 18.8025 4.28691 17.9542L5.06611 16.7835C7.12228 18.1522 9.51998 18.8756 12 18.8756C14.48 18.8756 16.8777 18.1522 18.9339 16.7835L19.7131 17.9542C18.4386 18.8025 17.0462 19.4278 15.5861 19.8155L16.8894 21.7028C22.0312 21.7028 23.918 18.4815 24 18.3533C23.9873 18.1743 23.6376 13.7123 22.717 10.5494ZM8.74884 14.2283H7.34259V11.8845H8.74884V14.2283ZM16.6574 14.2283H15.2512V11.8845H16.6574V14.2283Z" fill="#313731"/>
</g>
<defs>
<clipPath id="clip0">
<rect width="24" height="24" fill="white"/>
</clipPath>
</defs>
</svg>
