<svg width="24" height="24" viewBox="0 0 24 24" fill="none" xmlns="http://www.w3.org/2000/svg">
<path d="M22.5 5.77233C21.7271 6.10026 20.8978 6.32266 20.0264 6.42196C20.9161 5.9118 21.5972 5.10262 21.92 4.14139C21.0854 4.61382 20.1642 4.95687 19.1826 5.14284C18.3966 4.33994 17.2785 3.83984 16.0384 3.83984C13.6593 3.83984 11.7303 5.6869 11.7303 7.96369C11.7303 8.2866 11.7683 8.60198 11.8418 8.90357C8.26201 8.7314 5.08768 7.08916 2.96314 4.59372C2.59176 5.20188 2.38049 5.91052 2.38049 6.66696C2.38049 8.09814 3.14161 9.36092 4.2964 10.0997C3.5904 10.0771 2.92639 9.89115 2.34508 9.58204V9.63356C2.34508 11.6314 3.83056 13.2987 5.80024 13.6782C5.43936 13.7712 5.05882 13.8227 4.66514 13.8227C4.38696 13.8227 4.11794 13.7963 3.85417 13.7461C4.40267 15.3858 5.99315 16.5782 7.87756 16.6109C6.40388 17.7167 4.54573 18.3738 2.52749 18.3738C2.17976 18.3738 1.83724 18.3537 1.5 18.3173C3.40671 19.4896 5.67036 20.1731 8.10327 20.1731C16.028 20.1731 20.3597 13.8881 20.3597 8.43741L20.3453 7.9034C21.1917 7.32536 21.9239 6.59911 22.5 5.77233Z" fill="#313731"/>
</svg>
