<svg width="173" height="36" viewBox="0 0 173 36" fill="none" xmlns="http://www.w3.org/2000/svg">
<path d="M55.9 30.24C54.2 30.24 52.83 29.73 51.79 28.71C50.77 27.67 50.26 26.3 50.26 24.6V14.37C50.26 12.65 50.77 11.29 51.79 10.29C52.83 9.27 54.2 8.76 55.9 8.76C57.62 8.76 59 9.27 60.04 10.29C61.08 11.29 61.6 12.65 61.6 14.37V14.73C61.6 14.83 61.56 14.92 61.48 15C61.42 15.08 61.34 15.12 61.24 15.12L58.45 15.24C58.21 15.24 58.09 15.12 58.09 14.88V14.13C58.09 13.43 57.89 12.86 57.49 12.42C57.09 11.98 56.56 11.76 55.9 11.76C55.26 11.76 54.74 11.98 54.34 12.42C53.94 12.86 53.74 13.43 53.74 14.13V24.87C53.74 25.57 53.94 26.14 54.34 26.58C54.74 27.02 55.26 27.24 55.9 27.24C56.56 27.24 57.09 27.02 57.49 26.58C57.89 26.14 58.09 25.57 58.09 24.87V24.12C58.09 24.02 58.12 23.94 58.18 23.88C58.26 23.8 58.35 23.76 58.45 23.76L61.24 23.88C61.34 23.88 61.42 23.92 61.48 24C61.56 24.06 61.6 24.14 61.6 24.24V24.6C61.6 26.3 61.08 27.67 60.04 28.71C59 29.73 57.62 30.24 55.9 30.24ZM64.3309 30C64.2309 30 64.1409 29.97 64.0609 29.91C64.0009 29.83 63.9709 29.74 63.9709 29.64V9.36C63.9709 9.26 64.0009 9.18 64.0609 9.12C64.1409 9.04 64.2309 9 64.3309 9H67.0909C67.1909 9 67.2709 9.04 67.3309 9.12C67.4109 9.18 67.4509 9.26 67.4509 9.36V29.64C67.4509 29.74 67.4109 29.83 67.3309 29.91C67.2709 29.97 67.1909 30 67.0909 30H64.3309ZM75.1675 30.24C73.5075 30.24 72.1975 29.8 71.2375 28.92C70.2975 28.04 69.8275 26.85 69.8275 25.35V19.32C69.8275 17.84 70.3075 16.66 71.2675 15.78C72.2275 14.88 73.5275 14.43 75.1675 14.43C76.8275 14.43 78.1375 14.88 79.0975 15.78C80.0575 16.66 80.5375 17.84 80.5375 19.32V25.35C80.5375 26.85 80.0575 28.04 79.0975 28.92C78.1575 29.8 76.8475 30.24 75.1675 30.24ZM75.1675 27.21C75.7275 27.21 76.1775 27.02 76.5175 26.64C76.8775 26.24 77.0575 25.72 77.0575 25.08V19.56C77.0575 18.94 76.8775 18.43 76.5175 18.03C76.1775 17.63 75.7275 17.43 75.1675 17.43C74.6075 17.43 74.1575 17.63 73.8175 18.03C73.4775 18.41 73.3075 18.92 73.3075 19.56V25.08C73.3075 25.72 73.4775 26.24 73.8175 26.64C74.1575 27.02 74.6075 27.21 75.1675 27.21ZM87.7267 30.18C86.1467 30.18 84.8867 29.8 83.9467 29.04C83.0067 28.28 82.5367 27.25 82.5367 25.95V25.74C82.5367 25.64 82.5667 25.56 82.6267 25.5C82.7067 25.42 82.7967 25.38 82.8967 25.38H85.4767C85.5767 25.38 85.6567 25.42 85.7167 25.5C85.7967 25.56 85.8367 25.64 85.8367 25.74V25.89C85.8367 26.37 86.0167 26.77 86.3767 27.09C86.7567 27.41 87.2167 27.57 87.7567 27.57C88.2767 27.57 88.6867 27.42 88.9867 27.12C89.2867 26.82 89.4367 26.44 89.4367 25.98C89.4367 25.58 89.3067 25.25 89.0467 24.99C88.7867 24.71 88.5067 24.5 88.2067 24.36C87.9067 24.22 87.3667 23.99 86.5867 23.67C85.4467 23.23 84.5067 22.67 83.7667 21.99C83.0467 21.31 82.6867 20.3 82.6867 18.96C82.6867 17.56 83.1267 16.47 84.0067 15.69C84.9067 14.89 86.1167 14.49 87.6367 14.49C89.1967 14.49 90.4267 14.91 91.3267 15.75C92.2467 16.57 92.7067 17.68 92.7067 19.08C92.7067 19.18 92.6667 19.27 92.5867 19.35C92.5267 19.41 92.4467 19.44 92.3467 19.44H89.8267C89.7267 19.44 89.6367 19.41 89.5567 19.35C89.4967 19.27 89.4667 19.18 89.4667 19.08V18.9C89.4667 18.42 89.2967 18.02 88.9567 17.7C88.6367 17.38 88.2267 17.22 87.7267 17.22C87.2067 17.22 86.7867 17.39 86.4667 17.73C86.1667 18.05 86.0167 18.44 86.0167 18.9C86.0167 19.28 86.1367 19.6 86.3767 19.86C86.6167 20.12 86.8867 20.33 87.1867 20.49C87.4867 20.63 87.9867 20.85 88.6867 21.15C89.5267 21.49 90.2267 21.83 90.7867 22.17C91.3667 22.49 91.8667 22.96 92.2867 23.58C92.7267 24.18 92.9467 24.93 92.9467 25.83C92.9467 27.17 92.4767 28.23 91.5367 29.01C90.5967 29.79 89.3267 30.18 87.7267 30.18ZM105.35 23.25C105.35 23.35 105.31 23.44 105.23 23.52C105.17 23.58 105.09 23.61 104.99 23.61H98.3598C98.2598 23.61 98.2098 23.66 98.2098 23.76V25.11C98.2098 25.73 98.3798 26.24 98.7198 26.64C99.0598 27.04 99.4998 27.24 100.04 27.24C100.5 27.24 100.89 27.1 101.21 26.82C101.55 26.52 101.77 26.14 101.87 25.68C101.93 25.48 102.06 25.38 102.26 25.38L104.93 25.5C105.03 25.5 105.11 25.54 105.17 25.62C105.25 25.68 105.28 25.77 105.26 25.89C105.12 27.29 104.61 28.37 103.73 29.13C102.85 29.87 101.62 30.24 100.04 30.24C98.3998 30.24 97.0998 29.81 96.1398 28.95C95.1998 28.07 94.7298 26.88 94.7298 25.38V19.29C94.7298 17.83 95.1998 16.66 96.1398 15.78C97.0998 14.88 98.3998 14.43 100.04 14.43C101.68 14.43 102.97 14.88 103.91 15.78C104.87 16.66 105.35 17.83 105.35 19.29V23.25ZM100.04 17.43C99.4998 17.43 99.0598 17.63 98.7198 18.03C98.3798 18.43 98.2098 18.94 98.2098 19.56V20.91C98.2098 21.01 98.2598 21.06 98.3598 21.06H101.75C101.85 21.06 101.9 21.01 101.9 20.91V19.56C101.9 18.92 101.73 18.41 101.39 18.03C101.05 17.63 100.6 17.43 100.04 17.43Z" fill="#313731"/>
<path d="M118.423 11.64C118.423 11.74 118.383 11.83 118.303 11.91C118.243 11.97 118.163 12 118.063 12H111.613C111.513 12 111.463 12.05 111.463 12.15V17.82C111.463 17.92 111.513 17.97 111.613 17.97H115.423C115.523 17.97 115.603 18.01 115.663 18.09C115.743 18.15 115.783 18.23 115.783 18.33V20.64C115.783 20.74 115.743 20.83 115.663 20.91C115.603 20.97 115.523 21 115.423 21H111.613C111.513 21 111.463 21.05 111.463 21.15V29.64C111.463 29.74 111.423 29.83 111.343 29.91C111.283 29.97 111.203 30 111.103 30H108.343C108.243 30 108.153 29.97 108.073 29.91C108.013 29.83 107.983 29.74 107.983 29.64V9.36C107.983 9.26 108.013 9.18 108.073 9.12C108.153 9.04 108.243 9 108.343 9H118.063C118.163 9 118.243 9.04 118.303 9.12C118.383 9.18 118.423 9.26 118.423 9.36V11.64ZM125.527 14.49C126.067 14.49 126.487 14.59 126.787 14.79C126.947 14.89 127.007 15.04 126.967 15.24L126.487 18.03C126.467 18.27 126.327 18.34 126.067 18.24C125.787 18.16 125.527 18.12 125.287 18.12C125.047 18.12 124.827 18.15 124.627 18.21C124.067 18.29 123.607 18.61 123.247 19.17C122.907 19.71 122.737 20.36 122.737 21.12V29.61C122.737 29.71 122.697 29.8 122.617 29.88C122.557 29.94 122.477 29.97 122.377 29.97H119.617C119.517 29.97 119.427 29.94 119.347 29.88C119.287 29.8 119.257 29.71 119.257 29.61V15.03C119.257 14.93 119.287 14.85 119.347 14.79C119.427 14.71 119.517 14.67 119.617 14.67H122.377C122.477 14.67 122.557 14.71 122.617 14.79C122.697 14.85 122.737 14.93 122.737 15.03V16.41C122.737 16.49 122.757 16.54 122.797 16.56C122.837 16.56 122.867 16.52 122.887 16.44C123.427 15.14 124.307 14.49 125.527 14.49ZM130.491 12.57C129.871 12.57 129.361 12.37 128.961 11.97C128.561 11.57 128.361 11.06 128.361 10.44C128.361 9.82 128.561 9.31 128.961 8.91C129.361 8.51 129.871 8.31 130.491 8.31C131.111 8.31 131.611 8.51 131.991 8.91C132.391 9.31 132.591 9.82 132.591 10.44C132.591 11.06 132.391 11.57 131.991 11.97C131.591 12.37 131.091 12.57 130.491 12.57ZM129.141 30C129.041 30 128.951 29.97 128.871 29.91C128.811 29.83 128.781 29.74 128.781 29.64V15.03C128.781 14.93 128.811 14.85 128.871 14.79C128.951 14.71 129.041 14.67 129.141 14.67H131.901C132.001 14.67 132.081 14.71 132.141 14.79C132.221 14.85 132.261 14.93 132.261 15.03V29.64C132.261 29.74 132.221 29.83 132.141 29.91C132.081 29.97 132.001 30 131.901 30H129.141ZM145.487 23.25C145.487 23.35 145.447 23.44 145.367 23.52C145.307 23.58 145.227 23.61 145.127 23.61H138.497C138.397 23.61 138.347 23.66 138.347 23.76V25.11C138.347 25.73 138.517 26.24 138.857 26.64C139.197 27.04 139.637 27.24 140.177 27.24C140.637 27.24 141.027 27.1 141.347 26.82C141.687 26.52 141.907 26.14 142.007 25.68C142.067 25.48 142.197 25.38 142.397 25.38L145.067 25.5C145.167 25.5 145.247 25.54 145.307 25.62C145.387 25.68 145.417 25.77 145.397 25.89C145.257 27.29 144.747 28.37 143.867 29.13C142.987 29.87 141.757 30.24 140.177 30.24C138.537 30.24 137.237 29.81 136.277 28.95C135.337 28.07 134.867 26.88 134.867 25.38V19.29C134.867 17.83 135.337 16.66 136.277 15.78C137.237 14.88 138.537 14.43 140.177 14.43C141.817 14.43 143.107 14.88 144.047 15.78C145.007 16.66 145.487 17.83 145.487 19.29V23.25ZM140.177 17.43C139.637 17.43 139.197 17.63 138.857 18.03C138.517 18.43 138.347 18.94 138.347 19.56V20.91C138.347 21.01 138.397 21.06 138.497 21.06H141.887C141.987 21.06 142.037 21.01 142.037 20.91V19.56C142.037 18.92 141.867 18.41 141.527 18.03C141.187 17.63 140.737 17.43 140.177 17.43ZM154.45 14.43C155.75 14.43 156.73 14.87 157.39 15.75C158.07 16.61 158.41 17.84 158.41 19.44V29.64C158.41 29.74 158.37 29.83 158.29 29.91C158.23 29.97 158.15 30 158.05 30H155.29C155.19 30 155.1 29.97 155.02 29.91C154.96 29.83 154.93 29.74 154.93 29.64V19.71C154.93 18.99 154.78 18.43 154.48 18.03C154.18 17.63 153.75 17.43 153.19 17.43C152.61 17.43 152.16 17.64 151.84 18.06C151.52 18.48 151.36 19.06 151.36 19.8V29.64C151.36 29.74 151.32 29.83 151.24 29.91C151.18 29.97 151.1 30 151 30H148.24C148.14 30 148.05 29.97 147.97 29.91C147.91 29.83 147.88 29.74 147.88 29.64V15.03C147.88 14.93 147.91 14.85 147.97 14.79C148.05 14.71 148.14 14.67 148.24 14.67H151C151.1 14.67 151.18 14.71 151.24 14.79C151.32 14.85 151.36 14.93 151.36 15.03V15.63C151.36 15.69 151.38 15.73 151.42 15.75C151.48 15.75 151.54 15.71 151.6 15.63C152.28 14.83 153.23 14.43 154.45 14.43ZM167.934 9.36C167.934 9.26 167.964 9.18 168.024 9.12C168.104 9.04 168.194 9 168.294 9H171.054C171.154 9 171.234 9.04 171.294 9.12C171.374 9.18 171.414 9.26 171.414 9.36V29.64C171.414 29.74 171.374 29.83 171.294 29.91C171.234 29.97 171.154 30 171.054 30H168.294C168.194 30 168.104 29.97 168.024 29.91C167.964 29.83 167.934 29.74 167.934 29.64V29.28C167.934 29.22 167.914 29.18 167.874 29.16C167.834 29.14 167.794 29.15 167.754 29.19C167.034 29.89 166.134 30.24 165.054 30.24C163.714 30.24 162.674 29.8 161.934 28.92C161.194 28.04 160.824 26.86 160.824 25.38V19.29C160.824 17.77 161.194 16.58 161.934 15.72C162.694 14.86 163.734 14.43 165.054 14.43C165.514 14.43 165.984 14.52 166.464 14.7C166.944 14.86 167.374 15.13 167.754 15.51C167.794 15.55 167.834 15.56 167.874 15.54C167.914 15.52 167.934 15.48 167.934 15.42V9.36ZM166.134 27.24C166.614 27.24 167.014 27.09 167.334 26.79C167.654 26.47 167.854 26.05 167.934 25.53V19.14C167.854 18.62 167.654 18.21 167.334 17.91C167.014 17.59 166.614 17.43 166.134 17.43C165.574 17.43 165.124 17.63 164.784 18.03C164.444 18.41 164.274 18.92 164.274 19.56V25.11C164.274 25.75 164.444 26.27 164.784 26.67C165.124 27.05 165.574 27.24 166.134 27.24Z" fill="#00C61B"/>
<ellipse cx="10.7408" cy="9.99185" rx="3.7037" ry="3.67984" fill="#313731"/>
<path d="M31.111 8.51976C31.111 11.5682 28.6237 14.0395 25.5555 14.0395C22.4872 14.0395 19.9999 11.5682 19.9999 8.51976C19.9999 5.47128 22.4872 3 25.5555 3C28.6237 3 31.111 5.47128 31.111 8.51976Z" fill="#00C61B"/>
<path d="M15.6442 17.852C14.8525 16.6192 15.1065 14.9939 16.2373 14.0577C17.0708 13.3675 18.2204 13.1928 19.2235 13.6036L30.0684 18.046C34.2891 19.7748 35.5283 25.1264 32.4924 28.514C29.5693 31.7757 24.3187 31.3587 21.9542 27.677L15.6442 17.852Z" fill="#00C61B"/>
<path opacity="0.7" d="M19.9078 17.0094C20.4469 15.8586 20.0424 14.4902 18.9633 13.8145C18.1679 13.3163 17.1597 13.2972 16.3442 13.7648L7.55357 18.8048C4.12265 20.7718 3.66879 25.5145 6.66605 28.0792C9.55115 30.5479 14.0151 29.588 15.6243 26.1529L19.9078 17.0094Z" fill="#313731"/>
</svg>
